<svg width="50" height="50" viewBox="0 0 50 50" fill="none" xmlns="http://www.w3.org/2000/svg">
<path d="M30.4296 20.3617C32.2819 21.7071 34.55 22.4987 37 22.4987V18.7265C35.6324 18.4304 34.4218 17.704 33.5116 16.6936C31.9535 15.7053 30.8309 14.0749 30.5018 12.1667H27.0672V31.308C27.0594 33.5395 25.2778 35.3463 23.0807 35.3463C21.7861 35.3463 20.6358 34.7191 19.9074 33.7472C18.6067 33.0799 17.7146 31.7099 17.7146 30.1277C17.7146 27.8901 19.4991 26.0758 21.7009 26.0758C22.1227 26.0758 22.5293 26.1425 22.9107 26.2655V22.452C18.1824 22.5514 14.3798 26.4784 14.3798 31.3081C14.3798 33.7191 15.3267 35.9047 16.8636 37.5017C18.2501 38.448 19.9192 39 21.7151 39C26.528 39 30.4297 35.034 30.4297 30.1416L30.4296 20.3617Z" fill="#EC1C2D"/>
<path d="M37 18.7265L37 17.7066C35.7667 17.7085 34.5579 17.3575 33.5116 16.6936C34.4378 17.7243 35.6573 18.4349 37 18.7265ZM30.5018 12.1667C30.4704 11.9843 30.4462 11.8007 30.4295 11.6164V11H25.6871V30.1415C25.6796 32.3728 23.898 34.1797 21.7008 34.1797C21.0779 34.1806 20.4636 34.0323 19.9074 33.7472C20.6358 34.7191 21.7861 35.3463 23.0807 35.3463C25.2778 35.3463 27.0594 33.5395 27.0672 31.308V12.1667H30.5018ZM22.9107 22.452L22.9109 21.3661C22.5146 21.3111 22.1151 21.2835 21.7151 21.2837C16.9018 21.2837 13 25.2496 13 30.1415C13 33.2086 14.5334 35.9118 16.8636 37.5017C15.3267 35.9047 14.3798 33.7191 14.3798 31.3081C14.3798 26.4784 18.1824 22.5514 22.9107 22.452Z" fill="#EC1C2D"/>
</svg>
