<svg width="50" height="50" viewBox="0 0 50 50" fill="none" xmlns="http://www.w3.org/2000/svg">
<path fill-rule="evenodd" clip-rule="evenodd" d="M35.5868 16.5744C36.7675 16.8905 37.6956 17.8184 38.0116 18.9992C38.5828 21.1373 38.5851 25.6008 38.5851 25.6008C38.5851 25.6008 38.5851 30.0644 38.0116 32.2025C37.6956 33.3832 36.7675 34.3112 35.5868 34.6272C33.4488 35.2007 24.8716 35.2007 24.8716 35.2007C24.8716 35.2007 16.2945 35.2007 14.1565 34.6272C12.9757 34.3112 12.0477 33.3832 11.7317 32.2025C11.1582 30.0644 11.1582 25.6008 11.1582 25.6008C11.1582 25.6008 11.1582 21.1373 11.7317 18.9992C12.0477 17.8184 12.9757 16.8905 14.1565 16.5744C16.2945 16.001 24.8716 16.001 24.8716 16.001C24.8716 16.001 33.4488 16.001 35.5868 16.5744ZM29.2517 25.6012L22.1263 29.7147V21.4875L29.2517 25.6012Z" fill="#EC1C2D"/>
</svg>
